<svg viewBox="0 0 24 24" fill="none" xmlns="http://www.w3.org/2000/svg">
  <path fill-rule="evenodd" clip-rule="evenodd" d="M12 2C6.47715 2 2 6.47715 2 12C2 17.5228 6.47715 22 12 22C17.5228 22 22 17.5228 22 12C22 6.47715 17.5228 2 12 2ZM8.14645 8.14645C8.34171 7.95118 8.65829 7.95118 8.85355 8.14645L11.8536 11.1464C12.0488 11.3417 12.0488 11.6583 11.8536 11.8536L8.85355 14.8536C8.65829 15.0488 8.34171 15.0488 8.14645 14.8536C7.95118 14.6583 7.95118 14.3417 8.14645 14.1464L10.7929 11.5L8.14645 8.85355C7.95118 8.65829 7.95118 8.34171 8.14645 8.14645ZM15.1464 8.14645C15.3417 7.95118 15.6583 7.95118 15.8536 8.14645L17.5 9.79289L19.1464 8.14645C19.3417 7.95118 19.6583 7.95118 19.8536 8.14645C20.0488 8.34171 20.0488 8.65829 19.8536 8.85355L18.2071 10.5L19.8536 12.1464C20.0488 12.3417 20.0488 12.6583 19.8536 12.8536C19.6583 13.0488 19.3417 13.0488 19.1464 12.8536L17.5 11.2071L15.8536 12.8536C15.6583 13.0488 15.3417 13.0488 15.1464 12.8536C14.9512 12.6583 14.9512 12.3417 15.1464 12.1464L16.7929 10.5L15.1464 8.85355C14.9512 8.65829 14.9512 8.34171 15.1464 8.14645Z" fill="#0052CC"/>
</svg>
